<?xml version="1.0" encoding="utf-8"?>
<!-- Generator: Adobe Illustrator 26.4.1, SVG Export Plug-In . SVG Version: 6.00 Build 0)  -->
<svg version="1.1" id="Layer_1" xmlns="http://www.w3.org/2000/svg" xmlns:xlink="http://www.w3.org/1999/xlink" x="0px" y="0px"
	 viewBox="0 0 16 16" style="enable-background:new 0 0 16 16;" xml:space="preserve">
<style type="text/css">
	.st0{fill:#0071C9;}
</style>
<path class="st0" d="M8,1.5c3.6,0,6.5,2.9,6.5,6.5s-2.9,6.5-6.5,6.5S1.5,11.6,1.5,8S4.4,1.5,8,1.5z M8,16c4.4,0,8-3.6,8-8
	s-3.6-8-8-8S0,3.6,0,8S3.6,16,8,16z M11.5,6.5c0.3-0.3,0.3-0.8,0-1.1s-0.8-0.3-1.1,0L7,8.9L5.5,7.5c-0.3-0.3-0.8-0.3-1.1,0
	s-0.3,0.8,0,1.1l2,2c0.3,0.3,0.8,0.3,1.1,0L11.5,6.5z"/>
</svg>
