<?xml version="1.0" encoding="utf-8"?>
<!-- Generator: Adobe Illustrator 26.4.1, SVG Export Plug-In . SVG Version: 6.00 Build 0)  -->
<svg version="1.1" id="Layer_1" xmlns="http://www.w3.org/2000/svg" xmlns:xlink="http://www.w3.org/1999/xlink" x="0px" y="0px"
	 viewBox="0 0 17.1 17.4" style="enable-background:new 0 0 17.1 17.4;" xml:space="preserve">
<style type="text/css">
	.st0{fill:#0071C9;stroke:#004772;stroke-width:0.5;stroke-miterlimit:10;}
</style>
<path class="st0" d="M2.6,13.7l3.3-7.4c0.5-1.1,1.3-2,2.2-2.6l4.6-2.9c0.1-0.1,0.2-0.1,0.3-0.1c0.3,0,0.6,0.3,0.6,0.6v0.1
	c0,0.1,0,0.2,0,0.2l-1.9,4.7c-0.1,0.1-0.1,0.3-0.1,0.5c0,0.2,0,0.3,0.1,0.5l2.9,6.5H8.1l0.4-1.1l1.3-0.4c0.2-0.1,0.3-0.3,0.3-0.5
	s-0.1-0.4-0.3-0.5l-1.3-0.4L8.1,9.5C8,9.3,7.8,9.2,7.6,9.2S7.2,9.3,7.1,9.5l-0.4,1.3l-1.3,0.4c-0.2,0.1-0.3,0.3-0.3,0.5
	s0.1,0.4,0.3,0.5l1.3,0.4l0.4,1.1H2.6z M9.4,5.1c0-0.1-0.1-0.2-0.2-0.2S8.9,5,8.9,5.1L8.7,5.7L8,5.9C7.9,5.9,7.9,6,7.9,6.2
	S7.9,6.4,8,6.4l0.6,0.2l0.2,0.6c0,0.1,0.1,0.2,0.2,0.2s0.2-0.1,0.2-0.2l0.2-0.6l0.6-0.2c0.1,0,0.2-0.1,0.2-0.2s-0.1-0.2-0.2-0.2
	L9.6,5.7L9.4,5.1z M1.6,14.7h14c0.6,0,1,0.4,1,1s-0.4,1-1,1h-14c-0.6,0-1-0.4-1-1S1.1,14.7,1.6,14.7z"/>
</svg>
