<?xml version="1.0" standalone="no"?>
<!DOCTYPE svg PUBLIC "-//W3C//DTD SVG 20010904//EN"
 "http://www.w3.org/TR/2001/REC-SVG-20010904/DTD/svg10.dtd">
<svg version="1.0" xmlns="http://www.w3.org/2000/svg"
 width="700.000000pt" height="700.000000pt" viewBox="0 0 700.000000 700.000000"
 preserveAspectRatio="xMidYMid meet">
<metadata>
Created by potrace 1.14, written by Peter Selinger 2001-2017
</metadata>
<g transform="translate(0.000000,700.000000) scale(0.100000,-0.100000)"
fill="#000000" stroke="none">
<path d="M5218 6805 c-21 -8 -57 -27 -80 -43 -24 -16 -110 -71 -193 -122 -308
-191 -521 -323 -562 -349 -54 -33 -66 -41 -644 -399 -423 -262 -611 -381 -629
-402 -3 -3 -36 -30 -75 -61 -112 -89 -353 -335 -389 -397 -5 -8 -17 -25 -28
-37 -34 -39 -120 -168 -178 -265 -58 -99 -98 -179 -182 -365 -81 -179 -84
-186 -127 -278 -23 -49 -41 -90 -41 -92 0 -3 -22 -52 -116 -253 -19 -41 -34
-75 -34 -77 0 -2 -17 -41 -39 -87 -21 -46 -105 -229 -186 -408 -81 -179 -158
-350 -172 -380 -14 -30 -102 -224 -195 -430 -94 -206 -188 -413 -209 -458 -22
-46 -39 -85 -39 -87 0 -2 -13 -32 -29 -67 -110 -239 -160 -352 -157 -356 5 -5
2127 -4 2132 0 3 4 -35 111 -165 458 l-61 165 -113 33 c-61 18 -148 44 -192
57 -44 14 -122 37 -173 52 -57 17 -103 37 -118 52 -26 26 -40 77 -30 115 15
60 40 72 286 147 129 39 257 77 284 85 27 7 52 17 57 21 4 4 26 69 49 143 76
247 129 410 139 429 31 57 154 62 199 8 10 -11 61 -179 132 -427 10 -36 27
-94 37 -130 l18 -64 60 -19 c33 -10 103 -31 155 -46 357 -107 364 -109 393
-143 19 -23 27 -43 27 -71 0 -43 -22 -92 -48 -106 -9 -5 -141 -46 -292 -91
-151 -45 -280 -88 -286 -94 -6 -6 -55 -130 -108 -276 -53 -146 -101 -274 -105
-285 -26 -60 -54 -55 327 -55 1567 -2 2605 0 2609 3 2 3 -23 62 -55 133 -66
144 -71 154 -172 379 -40 88 -92 202 -116 253 -24 52 -44 95 -44 97 0 2 -15
36 -34 77 -18 40 -57 125 -86 188 -28 63 -62 138 -75 165 -46 102 -78 172
-115 255 -21 47 -54 121 -75 165 -20 44 -54 118 -75 165 -21 47 -55 121 -75
165 -21 44 -54 118 -75 165 -21 47 -51 114 -68 150 -16 36 -53 117 -82 180
-29 63 -69 149 -89 190 -35 73 -36 78 -36 191 0 98 3 120 18 136 9 11 17 23
17 27 0 7 151 379 175 433 8 17 15 34 15 38 0 3 9 25 19 48 10 23 60 143 111
267 50 124 97 239 105 255 7 17 90 219 185 449 l172 419 -4 106 c-3 92 -8 114
-33 164 -35 71 -107 140 -183 175 -67 31 -174 38 -234 17z m-1419 -2030 l43
-130 89 -65 c49 -35 89 -67 89 -70 0 -3 -57 -23 -127 -45 l-126 -40 -40 -119
c-25 -75 -42 -114 -47 -105 -4 8 -17 43 -29 79 -12 36 -29 83 -37 106 l-14 41
-126 39 c-180 56 -179 62 9 114 83 24 154 44 156 46 3 3 83 227 98 277 9 28
16 13 62 -128z"/>
<path d="M550 1173 c-198 -40 -368 -210 -398 -397 -11 -68 -5 -189 12 -248 44
-150 150 -259 312 -320 l59 -23 2965 -2 c2880 -2 2967 -2 3032 17 236 66 369
251 362 505 -5 221 -123 381 -334 456 l-65 23 -2940 1 c-2390 1 -2953 -1
-3005 -12z"/>
</g>
</svg>
